# xmcd
#
# Track frame offsets:
#	150
#	18856
#	33606
#	46509
#	55135
#	75357
#	104866
#	119538
#	138377
#	154072
#	167298
#	188578
#
# Disc length: 2807 seconds
#
# Revision: 0
# Processed by: cddbd v1.4PL0 Copyright (c) Steve Scherf et al.
# Submitted via: EasyCDDAExtractor 4.6.9.1
#
DISCID=8d0af50c
DTITLE=Vince Gill, Olivia Newton-John and The Bradford Singers - 'Tis The Season
DYEAR=1900
DGENRE=Christmas
TTITLE0=(There's No Place Like) Home For The Holidays -Vince Gill And Olivia N
TTITLE0=ewton-John
TTITLE1=Sleigh Ride -Vince Gill
TTITLE2=Silver Bells -Olivia Newton-John
TTITLE3=Deck The Halls -The Bradford Singers
TTITLE4=The First Noel -Vince Gill
TTITLE5=Ave Maria -Olivia Newton-John
TTITLE6=It Came Upon A Midnight Clear -Vince Gill
TTITLE7=Away In A Manger -Olivia Newton-John
TTITLE8=O Little Town Of Bethlehem -The Bradford Singers
TTITLE9=What Child Is This? -Olivia Newton-John
TTITLE10=Silent Night -Vince Gill
TTITLE11=O Holy Night -Olivia Newton-John
EXTD=ID3G:  38\n
EXTT0=
EXTT1=
EXTT2=
EXTT3=
EXTT4=
EXTT5=
EXTT6=
EXTT7=
EXTT8=
EXTT9=
EXTT10=
EXTT11=
PLAYORDER=
